<svg width="48" height="40" viewBox="0 0 48 40" fill="none" xmlns="http://www.w3.org/2000/svg">
<path fill-rule="evenodd" clip-rule="evenodd" d="M25.5443 30.7331L20.4776 35.7331C20.2142 36.0218 19.8906 36.2491 19.5296 36.3988C19.1686 36.5486 18.7791 36.6172 18.3887 36.5998C18.1404 36.6052 17.898 36.5238 17.7033 36.3697C17.5086 36.2155 17.3737 35.9982 17.3221 35.7553L13.4554 23.6664C13.4188 23.4952 13.3348 23.3378 13.213 23.212C13.0912 23.0863 12.9365 22.9973 12.7665 22.9553L3.72206 20.1109C3.26719 19.9703 2.83358 19.7685 2.43317 19.5109C2.27672 19.4393 2.14194 19.3277 2.04243 19.1873C1.94292 19.0469 1.88221 18.8828 1.86643 18.7115C1.85065 18.5401 1.88035 18.3677 1.95255 18.2115C2.02475 18.0553 2.13688 17.921 2.27762 17.822C2.85186 17.3299 3.50563 16.9392 4.21095 16.6664C8.03318 15.1331 11.8554 13.6442 15.6998 12.222L43.3221 1.35532C43.6631 1.14609 44.059 1.04396 44.4587 1.06212C44.8584 1.08028 45.2435 1.2179 45.5641 1.45719C45.8848 1.69649 46.1263 2.02645 46.2574 2.40444C46.3886 2.78243 46.4034 3.19107 46.2998 3.57755C46.1402 4.85748 45.9027 6.1265 45.5887 7.37755C43.5665 17.1331 41.4998 26.9109 39.4554 36.6887C38.9443 38.9109 37.3443 39.5331 35.5221 38.1775L26.011 31.0664L25.5443 30.7331V30.7331ZM35.7887 10.8442C28.6554 15.2887 21.1665 18.9998 14.0332 23.5331C13.6776 23.7775 13.5665 23.9553 13.7221 24.3998C14.8554 27.8442 15.9443 31.3109 17.011 34.7553C17.048 34.9226 17.1 35.0863 17.1665 35.2442V35.2442C17.1774 35.0963 17.1774 34.9477 17.1665 34.7998C17.3665 32.5775 17.5887 30.3553 17.7665 28.1331C17.7714 27.9088 17.8233 27.688 17.919 27.4851C18.0148 27.2822 18.1521 27.1017 18.3221 26.9553L32.8998 13.8664L36.9887 10.1109L35.7887 10.8442Z" stroke="currentColor" stroke-linecap="round" stroke-linejoin="round"/>
</svg>
